<mxfile host="app.diagrams.net" modified="2023-01-06T13:41:50.858Z" agent="5.0 (Windows)" etag="mOi4lelVSPglfAyacJTB" version="20.8.1" type="github">
  <diagram id="FKbZ4pUcJLhqBmUT38od" name="Página-1">
    <mxGraphModel dx="1194" dy="752" grid="1" gridSize="10" guides="1" tooltips="1" connect="1" arrows="1" fold="1" page="1" pageScale="1" pageWidth="827" pageHeight="1169" math="0" shadow="0">
      <root>
        <mxCell id="0" />
        <mxCell id="1" parent="0" />
        <mxCell id="BmlAgcdd3eM29pVQZzMR-1" value="" style="triangle;whiteSpace=wrap;html=1;rotation=90;" parent="1" vertex="1">
          <mxGeometry x="146.88" y="226.88" width="533.75" height="410" as="geometry" />
        </mxCell>
        <mxCell id="BmlAgcdd3eM29pVQZzMR-2" value="" style="endArrow=none;dashed=1;html=1;rounded=0;entryX=0.118;entryY=0.056;entryDx=0;entryDy=0;entryPerimeter=0;exitX=0.115;exitY=0.942;exitDx=0;exitDy=0;exitPerimeter=0;" parent="1" source="BmlAgcdd3eM29pVQZzMR-1" target="BmlAgcdd3eM29pVQZzMR-1" edge="1">
          <mxGeometry x="0.0391" y="10" width="50" height="50" relative="1" as="geometry">
            <mxPoint x="253.75" y="240" as="sourcePoint" />
            <mxPoint x="573.75" y="240" as="targetPoint" />
            <Array as="points">
              <mxPoint x="414" y="240" />
            </Array>
            <mxPoint as="offset" />
          </mxGeometry>
        </mxCell>
        <mxCell id="BmlAgcdd3eM29pVQZzMR-4" value="20 %" style="text;html=1;strokeColor=none;fillColor=none;align=center;verticalAlign=middle;whiteSpace=wrap;rounded=0;" parent="1" vertex="1">
          <mxGeometry x="384" y="180" width="60" height="30" as="geometry" />
        </mxCell>
        <mxCell id="BmlAgcdd3eM29pVQZzMR-7" value="30 %" style="text;html=1;strokeColor=none;fillColor=none;align=center;verticalAlign=middle;whiteSpace=wrap;rounded=0;" parent="1" vertex="1">
          <mxGeometry x="384" y="250" width="60" height="30" as="geometry" />
        </mxCell>
        <mxCell id="BmlAgcdd3eM29pVQZzMR-9" value="40 %" style="text;html=1;strokeColor=none;fillColor=none;align=center;verticalAlign=middle;whiteSpace=wrap;rounded=0;" parent="1" vertex="1">
          <mxGeometry x="384" y="290" width="60" height="30" as="geometry" />
        </mxCell>
        <mxCell id="BmlAgcdd3eM29pVQZzMR-12" value="50 %" style="text;html=1;strokeColor=none;fillColor=none;align=center;verticalAlign=middle;whiteSpace=wrap;rounded=0;" parent="1" vertex="1">
          <mxGeometry x="384" y="340" width="60" height="30" as="geometry" />
        </mxCell>
        <mxCell id="BmlAgcdd3eM29pVQZzMR-13" value="60 %" style="text;html=1;strokeColor=none;fillColor=none;align=center;verticalAlign=middle;whiteSpace=wrap;rounded=0;" parent="1" vertex="1">
          <mxGeometry x="384" y="390" width="60" height="30" as="geometry" />
        </mxCell>
        <mxCell id="BmlAgcdd3eM29pVQZzMR-14" value="70 %" style="text;html=1;strokeColor=none;fillColor=none;align=center;verticalAlign=middle;whiteSpace=wrap;rounded=0;" parent="1" vertex="1">
          <mxGeometry x="384" y="440" width="60" height="30" as="geometry" />
        </mxCell>
        <mxCell id="BmlAgcdd3eM29pVQZzMR-15" value="80 %" style="text;html=1;strokeColor=none;fillColor=none;align=center;verticalAlign=middle;whiteSpace=wrap;rounded=0;" parent="1" vertex="1">
          <mxGeometry x="384" y="490" width="60" height="30" as="geometry" />
        </mxCell>
        <mxCell id="BmlAgcdd3eM29pVQZzMR-16" value="90 %" style="text;html=1;strokeColor=none;fillColor=none;align=center;verticalAlign=middle;whiteSpace=wrap;rounded=0;" parent="1" vertex="1">
          <mxGeometry x="384" y="554.5" width="60" height="30" as="geometry" />
        </mxCell>
        <mxCell id="BmlAgcdd3eM29pVQZzMR-17" value="100 %" style="text;html=1;strokeColor=none;fillColor=none;align=center;verticalAlign=middle;whiteSpace=wrap;rounded=0;" parent="1" vertex="1">
          <mxGeometry x="384" y="620" width="60" height="30" as="geometry" />
        </mxCell>
        <mxCell id="BmlAgcdd3eM29pVQZzMR-18" value="" style="endArrow=none;dashed=1;html=1;rounded=0;exitX=0.212;exitY=0.894;exitDx=0;exitDy=0;exitPerimeter=0;entryX=0.217;entryY=0.108;entryDx=0;entryDy=0;entryPerimeter=0;" parent="1" source="BmlAgcdd3eM29pVQZzMR-1" target="BmlAgcdd3eM29pVQZzMR-1" edge="1">
          <mxGeometry x="0.0391" y="10" width="50" height="50" relative="1" as="geometry">
            <mxPoint x="228.99500000000026" y="276.9200000000001" as="sourcePoint" />
            <mxPoint x="580" y="280" as="targetPoint" />
            <Array as="points">
              <mxPoint x="414.15" y="290" />
            </Array>
            <mxPoint as="offset" />
          </mxGeometry>
        </mxCell>
        <mxCell id="BmlAgcdd3eM29pVQZzMR-19" value="" style="endArrow=none;dashed=1;html=1;rounded=0;entryX=0.301;entryY=0.144;entryDx=0;entryDy=0;entryPerimeter=0;exitX=0.296;exitY=0.853;exitDx=0;exitDy=0;exitPerimeter=0;" parent="1" source="BmlAgcdd3eM29pVQZzMR-1" target="BmlAgcdd3eM29pVQZzMR-1" edge="1">
          <mxGeometry x="0.0391" y="10" width="50" height="50" relative="1" as="geometry">
            <mxPoint x="228.99500000000035" y="320.00000000000006" as="sourcePoint" />
            <mxPoint x="597.1750000000002" y="322.13500000000005" as="targetPoint" />
            <Array as="points">
              <mxPoint x="414.15" y="333.08" />
            </Array>
            <mxPoint as="offset" />
          </mxGeometry>
        </mxCell>
        <mxCell id="BmlAgcdd3eM29pVQZzMR-20" value="" style="endArrow=none;dashed=1;html=1;rounded=0;entryX=0.377;entryY=0.187;entryDx=0;entryDy=0;entryPerimeter=0;exitX=0.372;exitY=0.815;exitDx=0;exitDy=0;exitPerimeter=0;" parent="1" edge="1">
          <mxGeometry x="0.0391" y="10" width="50" height="50" relative="1" as="geometry">
            <mxPoint x="284.605" y="369.5600000000002" as="sourcePoint" />
            <mxPoint x="542.0849999999998" y="372.2287500000001" as="targetPoint" />
            <Array as="points">
              <mxPoint x="415.06" y="379.08" />
            </Array>
            <mxPoint as="offset" />
          </mxGeometry>
        </mxCell>
        <mxCell id="BmlAgcdd3eM29pVQZzMR-21" value="" style="endArrow=none;dashed=1;html=1;rounded=0;entryX=0.472;entryY=0.234;entryDx=0;entryDy=0;entryPerimeter=0;exitX=0.47;exitY=0.765;exitDx=0;exitDy=0;exitPerimeter=0;" parent="1" source="BmlAgcdd3eM29pVQZzMR-1" target="BmlAgcdd3eM29pVQZzMR-1" edge="1">
          <mxGeometry x="0.0391" y="10" width="50" height="50" relative="1" as="geometry">
            <mxPoint x="229.90500000000043" y="410" as="sourcePoint" />
            <mxPoint x="598.085" y="412.135" as="targetPoint" />
            <Array as="points">
              <mxPoint x="414" y="423" />
            </Array>
            <mxPoint as="offset" />
          </mxGeometry>
        </mxCell>
        <mxCell id="BmlAgcdd3eM29pVQZzMR-22" value="" style="endArrow=none;dashed=1;html=1;rounded=0;entryX=0.569;entryY=0.282;entryDx=0;entryDy=0;entryPerimeter=0;exitX=0.564;exitY=0.717;exitDx=0;exitDy=0;exitPerimeter=0;" parent="1" source="BmlAgcdd3eM29pVQZzMR-1" target="BmlAgcdd3eM29pVQZzMR-1" edge="1">
          <mxGeometry x="0.0391" y="10" width="50" height="50" relative="1" as="geometry">
            <mxPoint x="328.4749999999999" y="467.1137500000002" as="sourcePoint" />
            <mxPoint x="497.3950000000001" y="469.78250000000014" as="targetPoint" />
            <Array as="points">
              <mxPoint x="414" y="475" />
            </Array>
            <mxPoint as="offset" />
          </mxGeometry>
        </mxCell>
        <mxCell id="BmlAgcdd3eM29pVQZzMR-23" value="" style="endArrow=none;dashed=1;html=1;rounded=0;entryX=0.676;entryY=0.336;entryDx=0;entryDy=0;entryPerimeter=0;exitX=0.673;exitY=0.67;exitDx=0;exitDy=0;exitPerimeter=0;" parent="1" source="BmlAgcdd3eM29pVQZzMR-1" target="BmlAgcdd3eM29pVQZzMR-1" edge="1">
          <mxGeometry x="0.0391" y="10" width="50" height="50" relative="1" as="geometry">
            <mxPoint x="239.99500000000035" y="520" as="sourcePoint" />
            <mxPoint x="608.1750000000002" y="522.135" as="targetPoint" />
            <Array as="points">
              <mxPoint x="410" y="540" />
            </Array>
            <mxPoint as="offset" />
          </mxGeometry>
        </mxCell>
        <mxCell id="BmlAgcdd3eM29pVQZzMR-24" value="" style="endArrow=none;dashed=1;html=1;rounded=0;entryX=0.788;entryY=0.394;entryDx=0;entryDy=0;entryPerimeter=0;exitX=0.787;exitY=0.612;exitDx=0;exitDy=0;exitPerimeter=0;" parent="1" source="BmlAgcdd3eM29pVQZzMR-1" target="BmlAgcdd3eM29pVQZzMR-1" edge="1">
          <mxGeometry x="0.0391" y="10" width="50" height="50" relative="1" as="geometry">
            <mxPoint x="230.99500000000035" y="578" as="sourcePoint" />
            <mxPoint x="599.1750000000002" y="580.135" as="targetPoint" />
            <Array as="points">
              <mxPoint x="414" y="600" />
            </Array>
            <mxPoint as="offset" />
          </mxGeometry>
        </mxCell>
        <mxCell id="cpSHxgMs6lZK7ATZQ9MI-1" value="Nuevas Oportunidades de Venta" style="text;html=1;strokeColor=none;fillColor=none;align=center;verticalAlign=middle;whiteSpace=wrap;rounded=0;" vertex="1" parent="1">
          <mxGeometry x="630" y="180" width="170" height="30" as="geometry" />
        </mxCell>
        <mxCell id="cpSHxgMs6lZK7ATZQ9MI-2" value="Contacto con Sondeo o Calificación" style="text;html=1;strokeColor=none;fillColor=none;align=center;verticalAlign=middle;whiteSpace=wrap;rounded=0;" vertex="1" parent="1">
          <mxGeometry x="630" y="240" width="170" height="30" as="geometry" />
        </mxCell>
        <mxCell id="cpSHxgMs6lZK7ATZQ9MI-3" value="Contacto Sin Envio de Presupuesto" style="text;html=1;strokeColor=none;fillColor=none;align=center;verticalAlign=middle;whiteSpace=wrap;rounded=0;" vertex="1" parent="1">
          <mxGeometry x="630" y="290" width="170" height="30" as="geometry" />
        </mxCell>
        <mxCell id="cpSHxgMs6lZK7ATZQ9MI-4" value="Contacto con Envio de Presupuesto - Sin Sondeo" style="text;html=1;strokeColor=none;fillColor=none;align=center;verticalAlign=middle;whiteSpace=wrap;rounded=0;" vertex="1" parent="1">
          <mxGeometry x="590" y="340" width="170" height="30" as="geometry" />
        </mxCell>
      </root>
    </mxGraphModel>
  </diagram>
</mxfile>
